<svg width="49" height="49" viewBox="0 0 49 49" fill="none" xmlns="http://www.w3.org/2000/svg">
<g clip-path="url(#clip0_1_2)">
<circle cx="24.5" cy="24.5" r="23.75" stroke="white" stroke-width="1.5"/>
<path d="M20.9297 16.5H28.0703C30.5139 16.5002 32.4998 18.4861 32.5 20.9297V28.0703L32.4941 28.29C32.4397 29.3848 31.9809 30.4234 31.2021 31.2021C30.3714 32.0329 29.2451 32.4999 28.0703 32.5H20.9297C18.4861 32.4998 16.5002 30.5139 16.5 28.0703V20.9297C16.5001 19.7549 16.9671 18.6286 17.7979 17.7979C18.5766 17.0191 19.6152 16.5603 20.71 16.5059L20.9297 16.5ZM20.7598 17.2002C19.8157 17.2003 18.9107 17.5756 18.2432 18.2432C17.5756 18.9107 17.2003 19.8157 17.2002 20.7598V28.2402C17.2003 30.2077 18.7923 31.7997 20.7598 31.7998H28.2402C29.1843 31.7997 30.0893 31.4244 30.7568 30.7568C31.4244 30.0893 31.7997 29.1843 31.7998 28.2402V20.7598C31.7997 18.7923 30.2077 17.2003 28.2402 17.2002H20.7598ZM24.5 20.75C25.4946 20.75 26.4481 21.1454 27.1514 21.8486C27.8546 22.5519 28.25 23.5054 28.25 24.5L28.2451 24.6855C28.1992 25.6126 27.8108 26.492 27.1514 27.1514C26.4481 27.8546 25.4946 28.25 24.5 28.25L24.3145 28.2451C23.3875 28.1992 22.508 27.8108 21.8486 27.1514C21.1454 26.4481 20.75 25.4946 20.75 24.5C20.75 23.5054 21.1454 22.5519 21.8486 21.8486C22.5519 21.1454 23.5054 20.75 24.5 20.75ZM24.5 21.4502C23.6911 21.4502 22.9157 21.7718 22.3438 22.3438C21.7718 22.9157 21.4502 23.6911 21.4502 24.5C21.4502 25.3089 21.7718 26.0843 22.3438 26.6562C22.9157 27.2282 23.6911 27.5498 24.5 27.5498C25.3089 27.5498 26.0843 27.2282 26.6562 26.6562C27.2282 26.0843 27.5498 25.3089 27.5498 24.5C27.5498 23.6911 27.2282 22.9157 26.6562 22.3438C26.0843 21.7718 25.3089 21.4502 24.5 21.4502ZM28.9629 19.4746C29.1119 19.4747 29.255 19.5343 29.3604 19.6396C29.4657 19.745 29.5253 19.8881 29.5254 20.0371C29.5254 20.1863 29.4658 20.3301 29.3604 20.4355C29.255 20.5409 29.1119 20.5995 28.9629 20.5996C28.8137 20.5996 28.6699 20.541 28.5645 20.4355C28.459 20.3301 28.4004 20.1863 28.4004 20.0371C28.4005 19.8881 28.4591 19.745 28.5645 19.6396C28.6699 19.5342 28.8137 19.4746 28.9629 19.4746Z" fill="white" stroke="white"/>
</g>
<defs>
<clipPath id="clip0_1_2">
<rect width="49" height="49" fill="white"/>
</clipPath>
</defs>
</svg>
