<svg width="49" height="49" viewBox="0 0 49 49" fill="none" xmlns="http://www.w3.org/2000/svg">
<g clip-path="url(#clip0_1_2)">
<circle cx="24.5" cy="24.5" r="23.75" stroke="white" stroke-width="1.5"/>
<path d="M21.148 18.5562C21.1477 18.9688 20.9817 19.3643 20.6864 19.6559C20.3911 19.9475 19.9906 20.1111 19.5732 20.1109C19.1557 20.1107 18.7555 19.9467 18.4605 19.6548C18.1654 19.3629 17.9998 18.9672 18 18.5547C18.0002 18.1422 18.1662 17.7466 18.4616 17.455C18.7569 17.1635 19.1573 16.9998 19.5748 17C19.9922 17.0002 20.3925 17.1643 20.6875 17.4561C20.9825 17.748 21.1482 18.1437 21.148 18.5562ZM21.1952 21.2628H18.0472V31H21.1952V21.2628ZM26.1689 21.2628H23.0367V31H26.1375V25.8903C26.1375 23.0438 29.8914 22.7793 29.8914 25.8903V31H33V24.8326C33 20.0339 27.4439 20.2128 26.1375 22.5694L26.1689 21.2628Z" stroke="white"/>
</g>
<defs>
<clipPath id="clip0_1_2">
<rect width="49" height="49" fill="white"/>
</clipPath>
</defs>
</svg>
