<svg xmlns="http://www.w3.org/2000/svg" width="1806" height="369" viewBox="0 0 1806 369" fill="none"><path d="M150.238 0.830078C150.322 1.33 151.242 9.82467 152.297 19.6802C153.357 29.5636 154.329 37.721 154.44 37.8321C154.579 37.9432 161.82 41.1173 170.533 44.8468L186.403 51.6394L186.486 50.7744C186.57 49.965 184.649 16.28 184.511 16.2205C183.788 15.8594 150.794 0.155591 150.516 0.0444976C150.183 -0.094369 150.127 0.0723038 150.238 0.822183V0.830078Z" fill="white"></path><path d="M258.934 34.4081C241.727 44.097 223.297 55.8173 207.704 66.9544C201.884 71.0768 200.495 72.1878 200.773 72.4377C200.829 72.4655 205.784 76.5878 211.743 81.5434C217.731 86.4989 222.797 90.7046 223.019 90.899C223.38 91.1767 224.107 90.7879 227.058 88.701C236.747 81.964 247.44 75.0008 257.712 68.7954L263.949 65.0381V48.3622C263.949 39.201 263.922 31.6863 263.866 31.6863C263.838 31.6863 261.612 32.9123 258.938 34.416V34.4081H258.934Z" fill="white"></path><path d="M115.993 53.4527C116.215 57.2378 117.219 85.5547 117.219 87.2251V88.7566L121.842 91.7641C138.434 102.485 157.284 115.986 171.762 127.54L177.19 131.857L178.332 130.853C184.847 125.06 200.19 110.582 200.162 110.221C200.162 109.971 198.825 108.718 197.21 107.408C174.492 89.1732 152.995 73.8582 130.304 59.7414C124.345 56.0674 116.215 51.1674 116.021 51.1674C115.938 51.1674 115.938 52.1989 115.993 53.4487V53.4527Z" fill="white"></path><path d="M59.03 109.332V127.428L60.6449 128.321C69.5006 133.332 84.145 142.465 95.5043 150.04C123.428 168.668 147.794 187.906 174.353 212.323L175.075 212.99L187.216 202.884C193.87 197.318 199.329 192.668 199.329 192.584C199.357 192.418 190.029 183.816 184.74 179.11C163.414 160.121 139.664 141.692 116.247 125.905C97.0081 112.958 82.9746 104.44 60.506 92.0766L59.03 91.2672V109.336V109.332Z" fill="white"></path><path d="M305.459 93.7946C280.4 105.293 254.812 119.215 231.288 134.165C220.429 141.069 201.579 153.959 201.579 154.491C201.579 154.63 219.009 170.473 223.909 174.762L224.94 175.654L230.594 171.786C253.368 156.165 277.007 142.247 302.039 129.801L311.284 125.206V108.221C311.284 98.8929 311.2 91.2632 311.089 91.291C310.95 91.291 308.415 92.4059 305.463 93.7985L305.459 93.7946Z" fill="white"></path><path d="M0.0598757 144.053L0.143198 162.038L3.06733 163.709C39.2084 184.424 72.3102 207.392 103.579 233.507C148.794 271.263 189.165 314.752 223.219 362.443L227.087 367.87L246.104 367.954C262.641 368.009 265.093 367.954 264.982 367.62C264.76 367.065 260.054 360.018 255.376 353.254C234.245 322.711 211.471 294.616 185.717 267.359C173.492 254.44 155.535 236.983 142.144 225.012C101.69 188.899 57.4197 157.551 9.66945 131.242C5.96766 129.21 2.26191 127.203 1.45648 126.786L0.00830078 126.064L0.0638472 144.049H0.0598757V144.053Z" fill="white"></path><path d="M384.64 129.964C384.335 130.103 380.966 131.44 377.122 132.916C341.985 146.529 304.649 164.768 271.044 184.757C246.766 199.207 221.484 216.415 199.432 233.507L194.921 236.987L201.519 243.696C205.165 247.37 210.065 252.437 212.434 254.972C214.799 257.507 216.834 259.594 216.917 259.65C217.028 259.705 219.088 258.202 221.512 256.337C268.814 220.057 322.051 189.542 378.459 166.407L386.172 163.233V146.473C386.172 130.658 386.144 129.686 385.7 129.714C385.422 129.714 384.95 129.825 384.64 129.964Z" fill="white"></path><path d="M378.797 201.771C330.463 222.625 286.641 247.99 244.596 279.421C241.228 281.956 238.442 284.043 238.387 284.099C238.331 284.127 240.585 287.023 243.426 290.531C247.742 295.875 255.955 306.457 257.376 308.46C257.765 309.016 257.987 308.877 264.279 304.171C300.726 276.969 338.811 254.445 380.047 235.734L386.034 233.032L386.117 215.88C386.145 206.441 386.089 198.728 385.978 198.728C385.839 198.756 382.637 200.093 378.797 201.763V201.771Z" fill="white"></path><path d="M0.00366211 220.171V238.827L4.09825 241.501C54.2132 274.27 102.828 317.846 141.834 365.009L144.314 368.017H164.33C183.292 368.017 184.319 367.989 184.069 367.517C183.597 366.679 173.571 353.904 168.477 347.694C142.501 315.926 112.93 286.081 81.5818 259.879C56.4946 238.914 31.6613 221.068 3.01112 203.388L0.00366211 201.523V220.179V220.171Z" fill="white"></path><path d="M374.619 279.42C342.545 295.707 315.537 312.498 287.252 333.713L278.956 339.95L279.456 340.672C281.964 344.457 290.065 358.213 294.128 365.593L295.16 367.485L296.608 366.315C308.606 356.709 328.016 343.009 343.16 333.491C356.329 325.195 373.481 315.339 383.614 310.272L386.177 308.991V291.45C386.177 277.611 386.094 273.909 385.844 273.909C385.649 273.909 380.61 276.417 374.623 279.42H374.619Z" fill="white"></path><path d="M0.00396544 301.39V320.823L3.67798 323.609C19.1874 335.329 35.7522 349.501 50.8133 363.813L55.2134 368.018H99.1746L96.8655 365.427C92.8582 361 70.8339 339.118 65.1523 333.909C44.8817 315.392 23.8057 298.466 2.72972 283.821L0 281.957V301.39H0.00396544Z" fill="white"></path><path d="M460.086 222.28V314.515H578.392V283.842H497.77V130.045H460.086V222.28Z" fill="white"></path><path d="M602.926 222.28V314.515H641.047V130.045H602.926V222.28Z" fill="white"></path><path d="M661.204 145.384V160.718H716.85V314.515H754.534V160.718H811.057V130.045H661.204V145.38V145.384Z" fill="white"></path><path d="M831.783 196.954L831.914 263.907L832.878 268.113C834.806 276.568 837.742 283.622 842.035 290.109C844.666 294.14 852.331 301.81 856.715 304.79C869.598 313.598 885.985 317.672 905.704 317.014C909.909 316.883 915.345 316.442 917.753 316.05C947.153 311.491 966.126 293.879 971.737 266.01C972.439 262.459 972.526 257.027 972.613 196.077L972.788 130.044H934.667L934.536 195.2L934.405 260.4L933.223 264.649C930.727 273.675 926.256 279.548 919.289 282.876C913.722 285.507 909.87 286.249 901.764 286.205C893.963 286.162 890.242 285.372 884.675 282.654C880.382 280.551 875.387 275.643 873.415 271.569C871.574 267.799 870.348 263.07 869.777 257.984C869.515 255.44 869.34 229.853 869.34 191.907V130.036H831.656L831.787 196.946V196.954H831.783Z" fill="white"></path><path d="M1004.29 222.235V314.514H1041.98V247.037H1057.22L1072.43 247.08L1089.6 280.686L1106.78 314.292L1127.15 314.423L1147.57 314.51V313.415C1147.57 312.8 1138.76 295.712 1127.85 275.076C1117.03 254.615 1108.13 237.788 1108.13 237.657C1108.13 237.526 1109.49 236.737 1111.11 235.904C1118.96 231.96 1127.72 224.644 1131.66 218.771C1137.97 209.352 1140.56 199.886 1140.56 186.217C1140.56 178.286 1140.16 174.695 1138.76 169.26C1136.08 158.92 1129.82 149.584 1121.19 143.188C1115.01 138.542 1105.41 134.337 1096.96 132.452C1087.36 130.349 1087.85 130.349 1044.95 130.175L1004.29 130V222.235H1004.29ZM1083.16 161.769C1093.06 164.487 1098.94 170.224 1101.61 179.778C1102.88 184.289 1103.01 192.355 1101.87 196.648C1099.32 206.246 1092.71 212.685 1082.63 215.359C1080.31 215.974 1076.85 216.105 1060.94 216.236L1041.97 216.411V160.678L1061.16 160.852C1077.81 160.983 1080.7 161.114 1083.16 161.773L1083.16 161.769Z" fill="white"></path><path d="M1151.95 145.384V160.718H1207.6V314.515H1245.28V160.718H1301.81V130.045H1151.95V145.38V145.384Z" fill="white"></path><path d="M1327.44 221.887C1308.64 272.407 1293.22 313.904 1293.13 314.122C1293.04 314.341 1301.45 314.515 1313.29 314.515H1333.62L1339.88 295.455L1346.15 276.394L1379.49 276.482L1412.79 276.613L1419.14 295.542L1425.45 314.515H1465.98L1452.26 277.795C1444.73 257.639 1429.22 216.19 1417.78 185.691L1397.05 130.263L1379.35 130.132L1361.6 130.045L1327.43 221.883H1327.44V221.887ZM1390.93 211.46C1397.11 229.862 1402.15 245.114 1402.15 245.332C1402.15 245.55 1392.69 245.725 1379.32 245.725C1361.22 245.725 1356.53 245.594 1356.66 245.153C1356.79 244.891 1361.88 229.509 1367.97 210.976C1374.1 192.487 1379.23 177.501 1379.4 177.676C1379.58 177.894 1384.75 193.098 1390.92 211.46H1390.93Z" fill="white"></path><path d="M1483.21 222.235V314.514H1520.89V247.037H1536.14L1551.34 247.08L1568.52 280.686L1585.69 314.292L1606.07 314.423L1626.49 314.51V313.415C1626.49 312.8 1617.68 295.712 1606.77 275.076C1595.94 254.615 1587.05 237.788 1587.05 237.657C1587.05 237.526 1588.4 236.737 1590.03 235.904C1597.87 231.96 1606.64 224.644 1610.58 218.771C1616.88 209.352 1619.47 199.886 1619.47 186.217C1619.47 178.286 1619.08 174.695 1617.67 169.26C1615 158.92 1608.73 149.584 1600.1 143.188C1593.93 138.542 1584.33 134.337 1575.87 132.452C1566.28 130.349 1566.76 130.349 1523.86 130.175L1483.2 130V222.235H1483.21ZM1562.08 161.769C1571.98 164.487 1577.85 170.224 1580.52 179.778C1581.79 184.289 1581.93 192.355 1580.79 196.648C1578.24 206.246 1571.63 212.685 1561.55 215.359C1559.23 215.974 1555.77 216.105 1539.86 216.236L1520.89 216.411V160.678L1540.08 160.852C1556.73 160.983 1559.62 161.114 1562.08 161.773L1562.08 161.769Z" fill="white"></path><path d="M1667.46 221.887C1648.66 272.407 1633.24 313.904 1633.15 314.122C1633.06 314.341 1641.47 314.515 1653.31 314.515H1673.64L1679.9 295.455L1686.17 276.394L1719.51 276.482L1752.81 276.613L1759.16 295.542L1765.47 314.515H1806L1792.28 277.795C1784.75 257.639 1769.24 216.19 1757.8 185.691L1737.07 130.263L1719.37 130.132L1701.62 130.045L1667.45 221.883H1667.46V221.887ZM1730.95 211.46C1737.13 229.862 1742.16 245.114 1742.16 245.332C1742.16 245.55 1732.7 245.725 1719.34 245.725C1701.24 245.725 1696.55 245.594 1696.68 245.153C1696.81 244.891 1701.89 229.509 1707.98 210.976C1714.12 192.487 1719.24 177.501 1719.42 177.676C1719.59 177.894 1724.76 193.098 1730.94 211.46H1730.95Z" fill="white"></path></svg>