<svg width="49" height="49" viewBox="0 0 49 49" fill="none" xmlns="http://www.w3.org/2000/svg">
<g clip-path="url(#clip0_1_2)">
<path d="M21.3398 18.5L24.3848 23.0381L24.7539 23.5889L25.1816 23.083L29.0527 18.5H29.3945L25.1523 23.5254L25.4678 23.793L25.1104 24.1191L30.0625 31.5H26.9404L23.5352 26.4258L23.166 25.875L22.7383 26.3818L18.418 31.5H18.0762L22.7725 25.9395L22.4238 25.6455L22.8066 25.3389L18.2178 18.5H21.3398ZM19.2246 19.5518L26.9121 31.0059L27.0605 31.2275H29.5723L29.0498 30.4492L21.3682 18.9941L21.2197 18.7725H18.7012L19.2246 19.5518Z" fill="white" stroke="white"/>
<circle cx="24.5" cy="24.5" r="23.75" stroke="white" stroke-width="1.5"/>
</g>
<defs>
<clipPath id="clip0_1_2">
<rect width="49" height="49" fill="white"/>
</clipPath>
</defs>
</svg>
